<svg aria-hidden="true" style="position: absolute; width: 0; height: 0; overflow: hidden;" version="1.1" xmlns="http://www.w3.org/2000/svg" xmlns:xlink="http://www.w3.org/1999/xlink">
<defs>
<symbol id="icon-menu" viewBox="0 0 32 32">
<path d="M17.8333 5.66663H1.5" stroke="#111111" stroke-width="2" stroke-linecap="round" stroke-linejoin="round"/>
<path d="M22.5 1H1.5" stroke="#111111" stroke-width="2" stroke-linecap="round" stroke-linejoin="round"/>
<path d="M22.5 10.3334H1.5" stroke="#111111" stroke-width="2" stroke-linecap="round" stroke-linejoin="round"/>
<path d="M17.8333 15H1.5" stroke="#111111" stroke-width="2" stroke-linecap="round" stroke-linejoin="round"/>
</symbol>
<symbol id="icon-amazon" viewBox="0 0 106 32">
<path fill="#B4AFAF" style="fill: var(--color1, #B4AFAF)" d="M65.939 25.026c-6.154 4.55-15.105 6.974-22.825 6.974-10.816 0-20.513-3.991-27.897-10.629-0.559-0.522-0.075-1.231 0.634-0.821 7.944 4.625 17.753 7.385 27.897 7.385 6.825 0 14.359-1.417 21.296-4.364 1.044-0.41 1.902 0.709 0.895 1.455z"></path>
<path fill="#B4AFAF" style="fill: var(--color1, #B4AFAF)" d="M68.513 22.079c-0.783-1.007-5.221-0.485-7.198-0.224-0.597 0.075-0.709-0.448-0.149-0.821 3.543-2.499 9.324-1.753 9.995-0.932s-0.186 6.638-3.506 9.399c-0.522 0.41-1.007 0.186-0.783-0.373 0.746-1.865 2.424-6.005 1.641-7.049z"></path>
<path fill="#000" style="fill: var(--color2, #000)" d="M61.427 3.506l0 0.001c0.014 0.331 0.287 0.595 0.621 0.595 0.005 0 0.009-0 0.013-0h5.632l-6.49 9.287c-0.41 0.597-0.41 1.268-0.41 1.641v2.461c0 0.373 0.41 0.746 0.783 0.559 3.655-1.977 8.093-1.79 11.413-0.037 0.41 0.224 0.783-0.186 0.783-0.559v-2.573c-0.037-0.336-0.149-0.709-0.559-0.932-1.865-1.044-4.065-1.342-6.154-1.305l5.594-7.981c0.522-0.746 0.821-1.194 0.821-1.529l-0-2.053c-0.014-0.331-0.286-0.596-0.621-0.596-0.005 0-0.009 0-0.013 0l-10.814 0c-0.010-0.001-0.021-0.001-0.032-0.001-0.313 0-0.567 0.254-0.567 0.567 0 0.011 0 0.021 0.001 0.030v2.425zM22.005 18.536h-3.282c-0.304-0.032-0.546-0.261-0.596-0.555l-0.001-0.004v-16.858c0.014-0.333 0.286-0.597 0.621-0.597 0.005 0 0.009 0 0.014 0h3.058c0.315 0.005 0.571 0.248 0.597 0.557l0 0.002v2.2h0.075c0.783-2.126 2.312-3.133 4.326-3.133 2.051 0 3.357 1.007 4.252 3.133 0.783-2.126 2.611-3.133 4.55-3.133 1.38 0 2.872 0.559 3.804 1.865 1.044 1.417 0.821 3.468 0.821 5.296v10.667c-0.014 0.332-0.286 0.597-0.621 0.597-0.005 0-0.009-0-0.014-0h-3.244c-0.336-0.037-0.597-0.298-0.597-0.597v-8.951c0-0.709 0.075-2.499-0.075-3.17-0.261-1.119-0.97-1.455-1.939-1.455-0.894 0.026-1.652 0.583-1.971 1.365l-0.005 0.015c-0.336 0.858-0.298 2.275-0.298 3.245v8.951c-0.014 0.332-0.286 0.597-0.621 0.597-0.005 0-0.009-0-0.014-0h-3.281c-0.336-0.037-0.597-0.298-0.597-0.597v-8.951c0-1.865 0.298-4.662-2.014-4.662-2.35 0-2.275 2.685-2.275 4.662v8.951c-0.048 0.319-0.32 0.56-0.648 0.56-0.008 0-0.016-0-0.024-0l0.001 0zM82.797 0.149c4.886 0 7.534 4.177 7.534 9.51 0 5.147-2.909 9.249-7.534 9.249-4.774 0-7.385-4.177-7.385-9.399-0.037-5.259 2.611-9.362 7.385-9.362zM82.797 3.618c-2.424 0-2.573 3.319-2.573 5.371s-0.037 6.452 2.536 6.452c2.536 0 2.685-3.543 2.685-5.706 0-1.417-0.075-3.133-0.485-4.476-0.373-1.194-1.119-1.641-2.163-1.641zM96.634 18.536h-3.282c-0.336-0.037-0.597-0.298-0.597-0.597v-16.895c0.043-0.316 0.31-0.557 0.634-0.559h3.059c0.289 0.011 0.528 0.211 0.596 0.48l0.001 0.004v2.573h0.075c0.932-2.312 2.201-3.394 4.476-3.394 1.455 0 2.909 0.522 3.841 1.977 0.858 1.343 0.858 3.618 0.858 5.259v10.629c-0.046 0.297-0.3 0.523-0.607 0.523-0.010 0-0.019-0-0.029-0.001l0.001 0h-3.282c-0.298-0.037-0.559-0.261-0.597-0.522v-9.175c0-1.865 0.224-4.55-2.051-4.55-0.783 0-1.529 0.522-1.902 1.343-0.448 1.044-0.522 2.051-0.522 3.207v9.101c-0.044 0.336-0.327 0.594-0.671 0.597h-0zM52.811 10.48c0 1.268 0.037 2.35-0.597 3.506-0.522 0.932-1.343 1.492-2.275 1.492-1.268 0-2.014-0.97-2.014-2.387 0-2.797 2.499-3.319 4.886-3.319zM56.131 18.499c-0.118 0.103-0.273 0.166-0.443 0.166-0.125 0-0.242-0.034-0.343-0.093l0.003 0.002c-1.082-0.895-1.305-1.343-1.902-2.2-1.79 1.827-3.096 2.387-5.408 2.387-2.76 0-4.923-1.716-4.923-5.11 0-2.685 1.455-4.475 3.506-5.371 1.79-0.783 4.289-0.932 6.191-1.156v-0.41c0-0.783 0.075-1.716-0.41-2.387-0.41-0.597-1.156-0.858-1.827-0.858-1.268 0-2.387 0.634-2.648 1.977-0.075 0.298-0.261 0.597-0.559 0.597l-3.17-0.336c-0.261-0.075-0.559-0.261-0.485-0.671 0.746-3.879 4.214-5.035 7.347-5.035 1.604 0 3.692 0.41 4.96 1.641 1.604 1.492 1.455 3.506 1.455 5.669v5.11c0 1.529 0.634 2.2 1.231 3.058 0.224 0.298 0.261 0.671 0 0.858-0.709 0.559-1.902 1.604-2.573 2.163zM9.734 10.48c0 1.268 0.037 2.35-0.597 3.506-0.522 0.932-1.343 1.492-2.275 1.492-1.268 0-2.014-0.97-2.014-2.387 0-2.797 2.499-3.319 4.886-3.319zM13.016 18.499c-0.118 0.103-0.273 0.166-0.443 0.166-0.125 0-0.242-0.034-0.343-0.093l0.003 0.002c-1.082-0.895-1.305-1.343-1.902-2.2-1.79 1.827-3.096 2.387-5.408 2.387-2.76 0-4.923-1.716-4.923-5.11 0-2.685 1.455-4.475 3.506-5.371 1.79-0.783 4.289-0.932 6.191-1.156v-0.41c0-0.783 0.075-1.716-0.41-2.387-0.41-0.597-1.156-0.858-1.827-0.858-1.268 0-2.387 0.634-2.648 1.977-0.075 0.298-0.261 0.597-0.559 0.597l-3.17-0.336c-0.261-0.075-0.559-0.261-0.485-0.671 0.746-3.879 4.214-5.035 7.347-5.035 1.604 0 3.692 0.41 4.96 1.641 1.604 1.492 1.455 3.506 1.455 5.669v5.11c0 1.529 0.634 2.2 1.231 3.058 0.224 0.298 0.261 0.671 0 0.858-0.709 0.559-1.902 1.604-2.573 2.163z"></path>
</symbol>
<symbol id="icon-appleBooks" viewBox="0 0 32 32">
<path fill="#B4AFAF" style="fill: var(--color3, #B4AFAF)" d="M20.352 1.6c2.88 0 4.352 0 5.888 0.48 1.696 0.608 3.040 1.952 3.648 3.648 0.512 1.568 0.512 3.008 0.512 5.92v8.704c0 2.88 0 4.352-0.48 5.888-0.608 1.696-1.952 3.040-3.648 3.648-1.568 0.512-3.008 0.512-5.92 0.512h-8.704c-2.88 0-4.352 0-5.888-0.48-1.696-0.64-3.040-1.984-3.68-3.68-0.48-1.536-0.48-2.976-0.48-5.888v-8.704c0-2.88 0-4.352 0.48-5.888 0.64-1.696 1.984-3.040 3.68-3.68 1.536-0.48 2.976-0.48 5.888-0.48h8.704z"></path>
<path fill="#fff" style="fill: var(--color4, #fff)" d="M6.4 10.496s0.928-2.4 4.672-2.4c3.712 0 4.704 3.136 4.704 3.136v13.44s-1.184-3.584-4.672-3.584c-2.528 0-4.32 1.632-4.32 1.632-0.192 0.16-0.384 0.064-0.384-0.192v-12.032zM25.6 10.496v12c0 0.256-0.16 0.352-0.384 0.192 0 0-1.792-1.632-4.32-1.632-3.456 0-4.64 3.584-4.64 3.584v-13.44s0.96-3.136 4.704-3.136c3.712 0 4.64 2.432 4.64 2.432z"></path>
</symbol>
<symbol id="icon-emblem" viewBox="0 0 21 32">
<path d="M9.322 30.888c-1.738-1.262-2.991-3.156-3.414-5.351h-5.591v-23.117c2.991 1.443 5.153 4.599 5.388 7.876l0.846 6.493-0.407-0.045c-0.893 0-1.676 0.812-1.676 1.608 0 0.752 0.595 1.383 1.378 1.548l1.018 0.226c1.676-3.051 2.631-6.042 2.631-8.973 0-2.645-0.36-5.291-0.423-7.996 0-1.202 0.486-2.3 1.253-3.156 0.783 0.857 1.253 1.954 1.253 3.156 0 2.705-0.423 5.351-0.423 7.996 0 2.931 0.955 5.922 2.631 8.973l1.018-0.226c0.783-0.165 1.378-0.812 1.378-1.548 0-0.812-0.783-1.608-1.676-1.608l-0.423 0.060 0.846-6.493c0.423-3.277 2.396-6.448 5.388-7.876v23.117h-5.576c-0.423 2.179-1.613 4.148-3.414 5.351-0.423 0.286-0.783 0.631-1.018 1.097-0.219-0.466-0.58-0.812-0.987-1.112zM2.964 17.556c0.235-0.857 0.893-1.608 1.738-2.074l-0.658-5.351c-0.235-1.668-0.955-3.156-2.036-4.374v11.784h0.955v0.015zM5.783 23.929c0-0.812 0.125-1.548 0.298-2.3l-0.783-0.18c-1.143-0.346-2.036-1.203-2.334-2.3h-0.955v4.78h3.774zM9.495 23.929c0-0.977-0.783-1.834-1.801-1.954-0.172 0.631-0.298 1.263-0.298 1.954h2.099zM9.495 25.552h-1.864c0.298 1.263 0.955 2.42 1.864 3.397v-3.397zM12.126 20.547c-0.72-1.262-1.378-2.585-1.801-3.968-0.423 1.383-1.081 2.706-1.801 3.968 0.72 0.165 1.316 0.631 1.801 1.157 0.486-0.526 1.081-0.992 1.801-1.157zM13.269 23.929c0-0.691-0.125-1.323-0.297-1.954-1.018 0.12-1.801 0.977-1.801 1.954h2.099zM13.034 25.552h-1.864v3.397c0.908-0.992 1.566-2.134 1.864-3.397zM18.657 23.929v-4.78h-0.955c-0.298 1.097-1.206 1.954-2.334 2.3l-0.783 0.18c0.172 0.752 0.298 1.488 0.298 2.3h3.774zM18.657 17.556v-11.799c-1.081 1.202-1.864 2.706-2.036 4.374l-0.658 5.351c0.846 0.466 1.504 1.203 1.739 2.074h0.955z"></path>
</symbol>
<symbol id="icon-arrow-right" viewBox="0 0 43 32">
<path stroke-linejoin="round" stroke-linecap="round" stroke-miterlimit="4" stroke-width="5.3333" d="M3.555 16h35.556M39.111 16l-13.333-13.333M39.111 16l-13.333 13.333"></path>
</symbol>
<symbol id="icon-Icon" viewBox="0 0 38 32">
<path stroke-linejoin="round" stroke-linecap="round" stroke-miterlimit="4" stroke-width="2.9091" d="M35.030 26.182l-11.273-10.182M14.060 16l-11.273 10.182M1.939 7.515l13.856 9.699c1.122 0.785 1.683 1.178 2.293 1.33 0.539 0.134 1.103 0.134 1.642 0 0.61-0.152 1.171-0.545 2.293-1.33l13.856-9.699M10.085 29.576h17.648c2.851 0 4.277 0 5.366-0.555 0.958-0.488 1.737-1.267 2.225-2.225 0.555-1.089 0.555-2.515 0.555-5.366v-10.861c0-2.851 0-4.277-0.555-5.366-0.488-0.958-1.267-1.737-2.225-2.225-1.089-0.555-2.515-0.555-5.366-0.555h-17.648c-2.851 0-4.277 0-5.366 0.555-0.958 0.488-1.737 1.267-2.225 2.225-0.555 1.089-0.555 2.515-0.555 5.366v10.861c0 2.851 0 4.277 0.555 5.366 0.488 0.958 1.267 1.737 2.225 2.225 1.089 0.555 2.515 0.555 5.366 0.555z"></path>
</symbol>
<symbol id="icon-shop" viewBox="0 0 32 32">
<path d="M25.333 9.333h-4v-1.333c0-1.415-0.562-2.771-1.562-3.771s-2.357-1.562-3.771-1.562c-1.414 0-2.771 0.562-3.771 1.562s-1.562 2.357-1.562 3.771v1.333h-4c-0.354 0-0.693 0.14-0.943 0.391s-0.391 0.589-0.391 0.943v14.667c0 1.061 0.421 2.078 1.172 2.828s1.768 1.172 2.828 1.172h13.333c1.061 0 2.078-0.421 2.828-1.172s1.172-1.768 1.172-2.828v-14.667c0-0.354-0.14-0.693-0.391-0.943s-0.589-0.391-0.943-0.391zM13.333 8c0-0.707 0.281-1.386 0.781-1.886s1.178-0.781 1.886-0.781c0.707 0 1.385 0.281 1.886 0.781s0.781 1.178 0.781 1.886v1.333h-5.333v-1.333zM24 25.333c0 0.354-0.14 0.693-0.391 0.943s-0.589 0.391-0.943 0.391h-13.333c-0.354 0-0.693-0.14-0.943-0.391s-0.391-0.589-0.391-0.943v-13.333h2.667v1.333c0 0.354 0.14 0.693 0.391 0.943s0.589 0.391 0.943 0.391c0.354 0 0.693-0.14 0.943-0.391s0.391-0.589 0.391-0.943v-1.333h5.333v1.333c0 0.354 0.14 0.693 0.39 0.943s0.589 0.391 0.943 0.391 0.693-0.14 0.943-0.391c0.25-0.25 0.391-0.589 0.391-0.943v-1.333h2.667v13.333z"></path>
</symbol>
<symbol id="icon-lock" viewBox="0 0 32 32">
<path stroke-linejoin="round" stroke-linecap="round" stroke-miterlimit="4" stroke-width="2.6667" d="M23.778 14.444v-4.667c0-4.296-3.482-7.778-7.778-7.778s-7.778 3.482-7.778 7.778v4.667M9.467 30h13.067c2.614 0 3.92 0 4.919-0.509 0.878-0.447 1.592-1.161 2.039-2.039 0.509-0.998 0.509-2.305 0.509-4.919v-0.622c0-2.614 0-3.92-0.509-4.919-0.447-0.878-1.161-1.592-2.039-2.039-0.998-0.509-2.305-0.509-4.919-0.509h-13.067c-2.614 0-3.92 0-4.919 0.509-0.878 0.447-1.592 1.161-2.039 2.039-0.509 0.998-0.509 2.305-0.509 4.919v0.622c0 2.614 0 3.92 0.509 4.919 0.447 0.878 1.161 1.592 2.039 2.039 0.998 0.509 2.305 0.509 4.919 0.509z"></path>
</symbol>
<symbol id="icon-close" viewBox="0 0 28 28">
<path d="M16 2L2 16M2 2L16 16" stroke="#111111" stroke-width="3" stroke-linecap="round" stroke-linejoin="round"/>
</symbol>
<symbol id="icon-basket" viewBox="0 0 18 18">
<path d="M6.75 2.25H11.25M2.25 4.5H15.75M14.25 4.5L13.724 12.3895C13.6451 13.5732 13.6057 14.165 13.35 14.6138C13.1249 15.0088 12.7854 15.3265 12.3762 15.5248C11.9115 15.75 11.3183 15.75 10.132 15.75H7.86799C6.68168 15.75 6.08852 15.75 5.62375 15.5248C5.21457 15.3265 4.87507 15.0088 4.64999 14.6138C4.39433 14.165 4.35488 13.5732 4.27596 12.3895L3.75 4.5M7.5 7.875V11.625M10.5 7.875V11.625" stroke="white" stroke-width="1.5" stroke-linecap="round" stroke-linejoin="round"/>
</symbol>
<symbol id="icon-book" viewBox="0 0 35 32">
<path d="M34.352 7.713c-0.752-0.394-1.536-0.722-2.352-1.001v19.742c-1.824-0.673-3.696-1.017-5.6-1.017-3.040 0-6.048 0.886-8.8 2.593v-19.856c-2.592-1.526-5.584-2.429-8.8-2.429-2.864 0-5.568 0.722-7.952 1.969-0.528 0.263-0.848 0.837-0.848 1.444v19.824c0 0.952 0.752 1.625 1.6 1.625 0.256 0 0.512-0.066 0.768-0.197 1.936-1.034 4.112-1.69 6.432-1.69 3.312 0 6.368 1.346 8.8 3.282 2.432-1.936 5.488-3.282 8.8-3.282 2.32 0 4.496 0.656 6.432 1.707 0.256 0.131 0.512 0.197 0.768 0.197 0.832 0 1.6-0.673 1.6-1.625v-19.84c0-0.607-0.32-1.182-0.848-1.444zM14.4 26.453c-1.824-0.673-3.696-1.017-5.6-1.017s-3.776 0.345-5.6 1.017v-16.263c1.776-0.771 3.648-1.165 5.6-1.165 1.92 0 3.824 0.41 5.6 1.182v16.246zM28.8 0l-8 8.205v15.59l8-7.385v-16.41z"></path>
</symbol>
<symbol id="icon-arrow-down" viewBox="0 0 60 32">
<path d="M3.168 3h53.667l-24.123 27.27c-0.719 0.812-1.694 1.269-2.71 1.269s-1.991-0.456-2.71-1.269l-24.123-27.27z"></path>
</symbol>
<symbol id="icon-logo" viewBox="0 0 125 32">
<path fill="#f6f6f6" style="fill: var(--color1, #f6f6f6)" d="M0 2.286l14.008 13.861 13.42 13.567v-27.429h-27.429z"></path>
<path fill="#f6f6f6" style="fill: var(--color1, #f6f6f6)" d="M3.82 5.91l10.237 10.139 9.649 9.845h-19.886v-19.984z"></path>
<path fill="#4f2ee8" style="fill: var(--color2, #4f2ee8)" d="M23.771 25.959l-10.237-10.139-9.649-9.845h19.886v19.984z"></path>
<path fill="#4f2ee8" style="fill: var(--color2, #4f2ee8)" d="M7.935 10.024l11.657 11.657h-11.657v-11.657z"></path>
<path fill="#f6f6f6" style="fill: var(--color1, #f6f6f6)" d="M7.935 10.024l11.657 11.657v-11.657h-11.657z"></path>
<path fill="#000" style="fill: var(--color3, #000)" d="M47.659 12.266c0-2.366-1.749-3.703-4.773-3.703h-6.315v14.709h6.665c3.045 0 4.999-1.461 4.999-4.299 0-2.201-1.317-3.333-2.859-3.6v-0.041c1.214-0.411 2.283-1.255 2.283-3.065zM39.019 14.653v-4.011h3.929c1.461 0 2.263 0.72 2.263 2.016s-0.658 1.995-2.407 1.995h-3.785zM39.019 16.483h4.299c1.543 0 2.469 0.843 2.469 2.345 0 1.378-0.638 2.366-2.736 2.366h-4.032v-4.711z"></path>
<path fill="#000" style="fill: var(--color3, #000)" d="M54.516 23.581c-3.291 0-5.287-2.283-5.287-5.554s1.995-5.554 5.287-5.554c3.291 0 5.287 2.283 5.287 5.554s-1.995 5.554-5.287 5.554zM54.516 21.811c2.057 0 3.127-1.625 3.127-3.785 0-2.181-1.070-3.785-3.127-3.785s-3.127 1.605-3.127 3.785c0 2.16 1.070 3.785 3.127 3.785z"></path>
<path fill="#000" style="fill: var(--color3, #000)" d="M66.027 23.581c-3.291 0-5.287-2.283-5.287-5.554s1.995-5.554 5.287-5.554c3.291 0 5.287 2.283 5.287 5.554s-1.995 5.554-5.287 5.554zM66.027 21.811c2.057 0 3.127-1.625 3.127-3.785 0-2.181-1.070-3.785-3.127-3.785s-3.127 1.605-3.127 3.785c0 2.16 1.070 3.785 3.127 3.785z"></path>
<path fill="#000" style="fill: var(--color3, #000)" d="M72.807 8.563v14.709h2.16v-3.806l1.461-1.378 3.312 5.184h2.592l-4.423-6.603 3.991-3.909h-2.654l-4.279 4.217v-8.414h-2.16z"></path>
<path fill="#000" style="fill: var(--color3, #000)" d="M87.539 16.915c-1.522-0.35-2.695-0.432-2.695-1.502 0-0.741 0.699-1.234 1.995-1.234 1.687 0 2.098 0.843 2.242 1.666h2.098c-0.144-1.831-1.502-3.374-4.361-3.374-2.633 0-4.155 1.378-4.155 3.106 0 2.386 2.263 2.715 3.929 3.106 1.543 0.37 2.798 0.473 2.798 1.79 0 0.658-0.638 1.399-2.139 1.399-2.222 0-2.715-0.967-2.818-2.098h-2.098c0.103 2.222 1.563 3.806 4.958 3.806 2.551 0 4.279-1.255 4.279-3.271 0-2.51-2.098-2.942-4.032-3.394z"></path>
<path fill="#000" style="fill: var(--color3, #000)" d="M98.633 12.472c-1.769 0-2.859 0.823-3.415 1.646h-0.041v-5.554h-2.16v14.709h2.16v-6.398c0-1.563 1.131-2.571 2.715-2.571 1.502 0 2.098 0.905 2.098 2.325v6.645h2.181v-7.262c0-2.407-1.543-3.538-3.538-3.538z"></path>
<path fill="#000" style="fill: var(--color3, #000)" d="M108.796 21.811c-1.913 0-3.045-1.461-3.045-3.23h8.064c0-3.744-1.666-6.11-5.061-6.11-3.168 0-5.163 2.139-5.163 5.554 0 3.291 1.995 5.554 5.266 5.554 2.695 0 4.258-1.522 4.793-3.518h-2.16c-0.185 0.638-0.905 1.749-2.695 1.749zM108.754 14.179c1.749 0 2.901 1.173 2.901 2.798h-5.904c0-1.625 1.255-2.798 3.003-2.798z"></path>
<path fill="#000" style="fill: var(--color3, #000)" d="M115.337 8.563v14.709h2.181v-14.709h-2.181z"></path>
<path fill="#000" style="fill: var(--color3, #000)" d="M124.573 10.333v-1.769c-0.432-0.082-0.905-0.144-1.44-0.144-1.728 0-2.674 0.782-2.674 3.003v1.337h-1.502v1.769h1.502v8.743h2.181v-8.743h1.934v-1.769h-1.934v-1.152c0-1.193 0.535-1.337 1.934-1.275z"></path>
</symbol>
<symbol id="icon-arrow-top" viewBox="0 0 55 32">
<path d="M1.091 25.309l24.436-24.509c0.291-0.291 0.606-0.496 0.945-0.617 0.339-0.122 0.703-0.183 1.091-0.183s0.752 0.061 1.091 0.183c0.339 0.12 0.655 0.326 0.946 0.617l24.509 24.509c0.679 0.679 1.018 1.527 1.018 2.545s-0.364 1.891-1.091 2.618c-0.727 0.727-1.576 1.091-2.545 1.091s-1.818-0.364-2.545-1.091l-21.382-21.382-21.382 21.382c-0.679 0.679-1.515 1.018-2.508 1.018-0.995 0-1.856-0.364-2.583-1.091s-1.091-1.576-1.091-2.545c0-0.97 0.364-1.818 1.091-2.545z"></path>
</symbol>
<symbol id="icon-user" viewBox="0 0 23 32">
<path d="M0.296 30.963c0-2.986 1.186-5.85 3.298-7.962s4.975-3.298 7.962-3.298 5.85 1.186 7.961 3.298c2.112 2.112 3.298 4.975 3.298 7.962h-22.518zM11.556 18.296c-4.666 0-8.444-3.779-8.444-8.444s3.779-8.444 8.444-8.444c4.666 0 8.444 3.779 8.444 8.444s-3.779 8.444-8.444 8.444z"></path>
</symbol>
</defs>
</svg>
